<svg xmlns="http://www.w3.org/2000/svg" viewBox="0 0 101.1 26.9"><path fill="none" d="M22.7 17.9c0 .9-.6 2-1.4 2.4l-7.6 4.4c-.8.4-2 .4-2.8 0l-7.6-4.4c-.7-.4-1.3-1.5-1.3-2.4V9.1c0-.9.6-2 1.4-2.4L11 2.3c.8-.4 2-.4 2.8 0l7.6 4.4c.8.4 1.4 1.5 1.4 2.4l-.1 8.8z"/><path fill="#0071BC" d="M14.3 25.5l7.6-4.4c1.1-.6 1.9-2 1.9-3.3V9c0-1.2-.8-2.7-1.9-3.3l-7.6-4.4c-1.1-.6-2.7-.6-3.8 0L2.9 5.9C1.8 6.5 1 7.9 1 9.1v8.8c0 1.2.8 2.7 1.9 3.3l7.6 4.4c.5.3 1.2.5 1.9.5.7-.1 1.3-.3 1.9-.6zM13.2 3.2l7.6 4.4c.5.3.9 1 .9 1.5v8.8c0 .5-.4 1.3-.9 1.5l-7.6 4.4c-.5.3-1.3.3-1.8 0l-7.6-4.4c-.5-.3-.9-1-.9-1.5V9.1c0-.5.4-1.3.9-1.5l7.6-4.4c.3-.1.6-.2 1-.2.3 0 .6.1.8.2z"/><path fill="#FFF" d="M12.4 2l-10 5.5v11.6l10.3 6.3 9.9-6.2-.3-12z"/><path fill="none" d="M22.7 17.9c0 .9-.6 2-1.4 2.4l-7.6 4.4c-.8.4-2 .4-2.8 0l-7.6-4.4c-.7-.4-1.3-1.5-1.3-2.4V9.1c0-.9.6-2 1.4-2.4L11 2.3c.8-.4 2-.4 2.8 0l7.6 4.4c.8.4 1.4 1.5 1.4 2.4l-.1 8.8z"/><path fill="#06C" d="M14.3 25.5l7.6-4.4c1.1-.6 1.9-2 1.9-3.3V9c0-1.2-.8-2.7-1.9-3.3l-7.6-4.4c-1.1-.6-2.7-.6-3.8 0L2.9 5.9C1.8 6.5 1 7.9 1 9.1v8.8c0 1.2.8 2.7 1.9 3.3l7.6 4.4c.5.3 1.2.5 1.9.5.7-.1 1.3-.3 1.9-.6zM13.2 3.2l7.6 4.4c.5.3.9 1 .9 1.5v8.8c0 .5-.4 1.3-.9 1.5l-7.6 4.4c-.5.3-1.3.3-1.8 0l-7.6-4.4c-.5-.3-.9-1-.9-1.5V9.1c0-.5.4-1.3.9-1.5l7.6-4.4c.3-.1.6-.2 1-.2.3 0 .6.1.8.2z"/><path fill="#FFF" d="M5.8 8.5L12 4.8"/><path fill="#06C" d="M5.8 9.3c-.3 0-.5-.1-.7-.4-.2-.3-.1-.8.3-1.1l6.1-3.7c.4-.2.9-.1 1.1.3.2.4.1.9-.3 1.1L6.2 9.2c-.1.1-.2.1-.4.1z"/><path fill="#FFF" d="M7.9 9.8L12 7.4"/><path fill="#06C" d="M7.9 10.6c-.3 0-.5-.1-.7-.4-.2-.4-.1-.9.3-1.1l4-2.4c.4-.2.9-.1 1.1.3.2.4.1.9-.3 1.1l-4 2.4c-.1.1-.2.1-.4.1z"/><path fill="#FFF" d="M9.9 11.2L12 9.9"/><path fill="#06C" d="M9.9 12c-.3 0-.5-.1-.7-.4-.2-.4-.1-.9.3-1.1l2.1-1.3c.4-.2.9-.1 1.1.3.2.4.1.9-.3 1.1l-2.1 1.3c-.1.1-.3.1-.4.1z"/><path fill="#FFF" d="M11.8 12.7l.3-.2"/><path fill="#06C" d="M11.8 13.5c-.3 0-.5-.1-.7-.4-.2-.4-.1-.9.2-1.1l.3-.2c.4-.2.9-.1 1.1.2.2.4.1.9-.2 1.1l-.3.2c-.1.2-.2.2-.4.2z"/><path d="M28.2 7.4h4.5c4 0 6 2 6 6s-1.9 6-5.8 6h-4.6c-1 0-1.5-.5-1.5-1.5v-9c-.1-1 .4-1.5 1.4-1.5zm1.5 3v6h3c2 0 3-1 3-3s-1-2.9-3-3h-3zm11.9-3h7.6c.9 0 1.4.5 1.4 1.5s-.5 1.5-1.5 1.5h-6v6H49c1 0 1.5.5 1.5 1.5s-.5 1.5-1.5 1.5h-7.5c-1 0-1.5-.5-1.5-1.4V9c.1-1.1.6-1.6 1.6-1.6zm2.3 6c0-1 .5-1.5 1.5-1.5h3c1 0 1.5.5 1.5 1.5s-.5 1.5-1.5 1.5h-3c-1 0-1.5-.5-1.5-1.5zm9.7 6c-.3 0-.5-.1-.7-.2s-.4-.3-.6-.5c-.1-.2-.2-.5-.2-.8 0-.3.7-1.9 2.2-4.9l2.4-4.8c.1-.2.3-.4.6-.6.2-.1.5-.2.7-.2.3 0 .5.1.7.2.2.1.4.3.6.6.1.2.9 1.9 2.4 4.8 1.5 3 2.2 4.6 2.2 4.9 0 .3-.1.5-.2.8-.1.2-.3.4-.6.5-.2.1-.5.2-.7.2h-8.8zm6.5-3.1l-2-4.2-2.1 4.2h4.1zM67 7.4c1 0 1.5.5 1.5 1.5v7.5h5.9c1 0 1.5.5 1.5 1.5s-.5 1.5-1.5 1.5H67c-1 0-1.5-.5-1.5-1.4V9c0-1.1.5-1.6 1.5-1.6zm12 0h5.2c1 0 1.9.4 2.6 1.1.8.7 1.1 1.6 1.1 2.6s-.3 1.7-.8 2.2c.5.5.8 1.3.8 2.3 0 1-.4 1.9-1.1 2.6-.7.8-1.6 1.1-2.5 1.1H79c-1 0-1.5-.5-1.5-1.5v-9c0-.9.5-1.4 1.5-1.4zm1.5 3v6h3.7c.5 0 .8-.2.8-.7 0-.5-.2-.8-.7-.8h-.7c-1 0-1.5-.5-1.5-1.6 0-.9.5-1.4 1.5-1.4h.7c.5 0 .7-.3.7-.8 0-.4-.2-.7-.7-.7h-3.8zm10.5-3c.5 0 .9.1 1.1.4.3.2 1.1 1.3 2.7 3.1C96.3 9 97.2 8 97.5 7.7c.3-.2.6-.4 1.1-.4.5 0 .9.1 1.1.4.3.3.4.6.4 1.1 0 .5-.3 1-.8 1.5l-3.1 3.6v4c0 1-.5 1.5-1.5 1.5s-1.5-.5-1.5-1.5V14l-2.9-3.5c-.5-.5-.8-1-.8-1.5s.1-.9.4-1.1c.2-.4.6-.5 1.1-.5z" fill="#FFF"/></svg>