<?xml version="1.0" encoding="utf-8"?>
<!-- Generator: Adobe Illustrator 22.1.0, SVG Export Plug-In . SVG Version: 6.00 Build 0)  -->
<svg version="1.1" id="Layer_1" xmlns="http://www.w3.org/2000/svg" xmlns:xlink="http://www.w3.org/1999/xlink" x="0px" y="0px"
	 width="115.9px" height="30px" viewBox="0 0 115.9 30" style="enable-background:new 0 0 115.9 30;" xml:space="preserve">
<style type="text/css">
	.st0{fill:#FFFFFF;}
	.st1{fill:#1072BA;}
</style>
<g>
	<g>
		<g>
			<path class="st0" d="M25.3,19.9c0,1-0.7,2.2-1.6,2.7l-8.5,5c-0.9,0.5-2.3,0.5-3.1,0l-8.5-4.9C2.7,22.1,2,20.9,2,19.9L2,10
				c0-1,0.7-2.2,1.6-2.7l8.5-5c0.9-0.5,2.3-0.5,3.1,0l8.5,4.9c0.9,0.5,1.6,1.7,1.6,2.7L25.3,19.9z"/>
		</g>
		<g>
			<path class="st1" d="M13.7,29c-0.8,0-1.5-0.2-2.1-0.5L3,23.6c-1.2-0.7-2.1-2.3-2.1-3.7l0-9.9c0-1.4,0.9-3,2.1-3.7l8.5-5
				c1.2-0.7,3-0.7,4.2,0l8.5,4.9c1.2,0.7,2.1,2.3,2.1,3.7l0,9.9c0,1.4-0.9,3-2.1,3.7l-8.5,5C15.2,28.9,14.4,29,13.7,29z M13.6,3.1
				c-0.4,0-0.7,0.1-1,0.2l-8.5,5c-0.5,0.3-1,1.1-1,1.7l0,9.9c0,0.6,0.5,1.4,1,1.7l8.5,4.9c0.5,0.3,1.5,0.3,2,0l8.5-5
				c0.5-0.3,1-1.1,1-1.7l0-9.9c0-0.6-0.5-1.4-1-1.7l-8.5-4.9C14.4,3.2,14,3.1,13.6,3.1z"/>
		</g>
	</g>
	<g>
		<line class="st0" x1="6.3" y1="9.3" x2="13.2" y2="5.2"/>
		<path class="st1" d="M6.3,10.2c-0.3,0-0.6-0.2-0.8-0.4c-0.3-0.4-0.1-1,0.3-1.2l6.9-4.1c0.4-0.3,1-0.1,1.2,0.3
			c0.3,0.4,0.1,1-0.3,1.2l-6.9,4.1C6.6,10.2,6.5,10.2,6.3,10.2z"/>
	</g>
	<g>
		<line class="st0" x1="8.7" y1="10.8" x2="13.2" y2="8.1"/>
		<path class="st1" d="M8.7,11.7c-0.3,0-0.6-0.2-0.8-0.4c-0.3-0.4-0.1-1,0.3-1.2l4.5-2.7c0.4-0.3,1-0.1,1.2,0.3
			c0.3,0.4,0.1,1-0.3,1.2l-4.5,2.7C9,11.7,8.8,11.7,8.7,11.7z"/>
	</g>
	<g>
		<line class="st0" x1="10.9" y1="12.3" x2="13.3" y2="10.9"/>
		<path class="st1" d="M10.9,13.3c-0.3,0-0.6-0.2-0.8-0.4c-0.3-0.4-0.1-1,0.3-1.2l2.4-1.4c0.4-0.3,1-0.1,1.2,0.3
			c0.3,0.4,0.1,1-0.3,1.2l-2.4,1.4C11.2,13.2,11,13.3,10.9,13.3z"/>
	</g>
	<g>
		<line class="st0" x1="13" y1="14" x2="13.4" y2="13.8"/>
		<path class="st1" d="M13,14.9c-0.3,0-0.6-0.1-0.7-0.4c-0.3-0.4-0.2-1,0.2-1.3l0.3-0.2c0.4-0.3,1-0.2,1.2,0.3
			c0.3,0.4,0.2,1-0.2,1.3l-0.3,0.2C13.4,14.9,13.2,14.9,13,14.9z"/>
	</g>
</g>
<g>
	<path class="st1" d="M33.1,7.7h5.4c4.8,0,7.3,2.4,7.3,7.2c0,4.8-2.4,7.2-7.1,7.2h-5.6c-1.2,0-1.8-0.6-1.8-1.8V9.6
		C31.2,8.4,31.9,7.7,33.1,7.7z M34.9,11.4v7.2h3.6c2.4,0,3.6-1.2,3.6-3.6c0-2.4-1.2-3.6-3.6-3.6H34.9z"/>
	<path class="st1" d="M48.1,7.7l9.2,0c1.1,0,1.7,0.6,1.7,1.8c0,1.2-0.6,1.9-1.8,1.9h-7.2v7.2h7.2c1.2,0,1.8,0.6,1.8,1.8
		c0,1.2-0.6,1.8-1.8,1.8h-9.1c-1.2,0-1.8-0.6-1.8-1.8V9.6C46.3,8.4,46.9,7.7,48.1,7.7z M50.7,15c0-1.2,0.6-1.8,1.8-1.8h3.6
		c1.2,0,1.8,0.6,1.8,1.8c0,1.2-0.6,1.8-1.8,1.8h-3.6C51.3,16.8,50.7,16.2,50.7,15z"/>
	<path class="st1" d="M61.3,22.2c-0.3,0-0.6-0.1-0.9-0.2c-0.3-0.2-0.5-0.4-0.7-0.7c-0.2-0.3-0.2-0.6-0.2-0.9c0-0.3,0.9-2.3,2.7-5.9
		c1.8-3.6,2.8-5.6,2.9-5.9c0.2-0.3,0.4-0.5,0.7-0.7c0.3-0.2,0.6-0.2,0.9-0.2c0.3,0,0.6,0.1,0.9,0.2c0.3,0.2,0.5,0.4,0.7,0.7
		c0.2,0.3,1.1,2.2,3,5.9c1.8,3.6,2.7,5.6,2.7,5.9c0,0.3-0.1,0.6-0.2,0.9c-0.2,0.3-0.4,0.5-0.7,0.7c-0.3,0.2-0.6,0.2-0.9,0.2H61.3z
		 M69.2,18.6l-2.5-5.1l-2.5,5.1H69.2z"/>
	<path class="st1" d="M76.3,7.7c1.2,0,1.8,0.6,1.8,1.8l0,9.1h7.2c1.2,0,1.8,0.6,1.8,1.8c0,1.2-0.6,1.8-1.8,1.8h-9.1
		c-1.2,0-1.8-0.6-1.8-1.8V9.6C74.5,8.4,75.1,7.7,76.3,7.7z"/>
	<path class="st1" d="M89.3,7.7h6.3c1.2,0,2.3,0.5,3.2,1.4c0.9,0.9,1.3,1.9,1.3,3.1v0.1c0,1.2-0.3,2.1-0.9,2.7c0.6,0.6,1,1.5,1,2.7
		v0.1c0,1.2-0.5,2.2-1.4,3.2s-1.9,1.4-3,1.4h-6.5c-1.2,0-1.8-0.6-1.8-1.8V9.6C87.4,8.4,88,7.7,89.3,7.7z M91.1,11.4v7.2h4.5
		c0.6,0,0.9-0.3,0.9-0.9c0-0.6-0.3-0.9-0.9-0.9l-0.9,0c-1.2,0-1.8-0.6-1.8-1.9c0-1.1,0.6-1.7,1.8-1.7l0.9,0c0.6,0,0.9-0.3,0.9-1
		c0-0.5-0.3-0.8-0.9-0.8H91.1z"/>
	<path class="st1" d="M102.3,7.7c0.6,0,1.1,0.1,1.4,0.4c0.3,0.3,1.4,1.6,3.2,3.8c1.9-2.3,3-3.5,3.3-3.8c0.3-0.3,0.8-0.4,1.4-0.4
		c0.6,0,1,0.2,1.4,0.5c0.3,0.3,0.5,0.7,0.5,1.3v0.1c0,0.6-0.3,1.2-1,1.8l-3.7,4.3l0,4.8c0,1.2-0.6,1.8-1.8,1.8h-0.1
		c-1.1,0-1.7-0.6-1.7-1.9l0-4.8l-3.6-4.3c-0.6-0.6-1-1.2-1-1.8V9.4c0-0.6,0.2-1,0.5-1.3C101.3,7.9,101.7,7.7,102.3,7.7z"/>
</g>
<g>
</g>
</svg>
