<svg id="Layer_1" data-name="Layer 1" xmlns="http://www.w3.org/2000/svg" viewBox="0 0 120.61 20.07"><defs><style>.cls-1{fill:#3fa9f5;}</style></defs><title>logo-linear</title><path class="cls-1" d="M4,4.31H11.5q10,0,10,10t-9.73,10H4a2.2,2.2,0,0,1-2.49-2.5V6.8A2.21,2.21,0,0,1,4,4.31Zm2.51,5v9.94h5q5,0,4.93-5,0-4.9-4.94-4.93Z" transform="translate(-1.52 -4.2)"/><path class="cls-1" d="M26.18,4.28l12.63,0a2.13,2.13,0,0,1,2.34,2.42,2.28,2.28,0,0,1-2.53,2.58H28.69v9.94h9.92a2.24,2.24,0,0,1,2.51,2.53,2.2,2.2,0,0,1-2.47,2.48H26.18a2.18,2.18,0,0,1-2.5-2.42V6.8A2.25,2.25,0,0,1,26.18,4.28Zm3.71,10.06a2.23,2.23,0,0,1,2.46-2.53h5a2.24,2.24,0,0,1,2.52,2.5,2.24,2.24,0,0,1-2.52,2.49h-5A2.18,2.18,0,0,1,29.89,14.34Z" transform="translate(-1.52 -4.2)"/><path class="cls-1" d="M45.88,24.27A2.52,2.52,0,0,1,44.64,24a2.26,2.26,0,0,1-.92-.92,2.48,2.48,0,0,1-.34-1.25q0-.66,3.73-8.15t4-8.09a2.44,2.44,0,0,1,.93-.93,2.51,2.51,0,0,1,2.49,0,2.49,2.49,0,0,1,.92.93q.33.6,4.08,8.09t3.75,8.15A2.48,2.48,0,0,1,63,23a2.23,2.23,0,0,1-.93.92,2.51,2.51,0,0,1-1.23.32Zm10.88-5-3.43-7-3.43,7Z" transform="translate(-1.52 -4.2)"/><path class="cls-1" d="M68.08,4.28c1.68,0,2.52.85,2.53,2.45V19.25h9.92A2.24,2.24,0,0,1,83,21.78a2.21,2.21,0,0,1-2.47,2.48H68.08a2.18,2.18,0,0,1-2.49-2.42V6.8A2.25,2.25,0,0,1,68.08,4.28Z" transform="translate(-1.52 -4.2)"/><path class="cls-1" d="M87.44,4.31h8.73a6.07,6.07,0,0,1,4.39,1.87,5.89,5.89,0,0,1,1.85,4.29v.08a4.93,4.93,0,0,1-1.29,3.69,5,5,0,0,1,1.31,3.68V18a6.12,6.12,0,0,1-1.91,4.35,5.8,5.8,0,0,1-4.19,1.89h-9a2.19,2.19,0,0,1-2.44-2.5V6.8A2.22,2.22,0,0,1,87.44,4.31Zm2.51,5v9.94h6.19A1.11,1.11,0,0,0,97.41,18a1.11,1.11,0,0,0-1.24-1.27H94.94c-1.68,0-2.52-.87-2.51-2.62,0-1.58.83-2.36,2.5-2.34h1.24c.84,0,1.24-.45,1.22-1.37,0-.74-.38-1.11-1.22-1.11Z" transform="translate(-1.52 -4.2)"/><path class="cls-1" d="M106.94,4.26a2.57,2.57,0,0,1,1.87.61c.43.41,1.91,2.14,4.44,5.21q3.87-4.68,4.5-5.28a3.19,3.19,0,0,1,3.75,0,2.3,2.3,0,0,1,.63,1.75v.14a3.32,3.32,0,0,1-1.33,2.48l-5.1,6v6.63a2.26,2.26,0,0,1-2.52,2.48h-.11c-1.56,0-2.35-.86-2.35-2.56l0-6.58-4.91-5.87a3.28,3.28,0,0,1-1.33-2.48V6.63a2.29,2.29,0,0,1,.62-1.74A2.61,2.61,0,0,1,106.94,4.26Z" transform="translate(-1.52 -4.2)"/></svg>